<svg xmlns="http://www.w3.org/2000/svg" viewBox="0 0 800 600" fill="none">
  <!-- Background shape -->
  <rect width="800" height="600" rx="20" fill="#F3F4F6" />
  
  <!-- Building outline -->
  <rect x="200" y="100" width="400" height="400" rx="10" fill="#FFFFFF" stroke="#E5E7EB" stroke-width="4" />
  
  <!-- Windows -->
  <rect x="250" y="150" width="120" height="120" rx="5" fill="#C7D2FE" stroke="#6366F1" stroke-width="3" />
  <rect x="430" y="150" width="120" height="120" rx="5" fill="#BFDBFE" stroke="#3B82F6" stroke-width="3" />
  <rect x="250" y="330" width="120" height="120" rx="5" fill="#FCE7F3" stroke="#EC4899" stroke-width="3" />
  <rect x="430" y="330" width="120" height="120" rx="5" fill="#A7F3D0" stroke="#10B981" stroke-width="3" />
  
  <!-- Person 1 -->
  <circle cx="310" cy="210" r="30" fill="#6366F1" />
  <circle cx="310" cy="210" r="25" fill="#818CF8" />
  <rect x="290" y="250" width="40" height="60" rx="5" fill="#818CF8" />
  
  <!-- Person 2 -->
  <circle cx="490" cy="210" r="30" fill="#3B82F6" />
  <circle cx="490" cy="210" r="25" fill="#93C5FD" />
  <rect x="470" y="250" width="40" height="60" rx="5" fill="#93C5FD" />
  
  <!-- Person 3 -->
  <circle cx="310" cy="390" r="30" fill="#EC4899" />
  <circle cx="310" cy="390" r="25" fill="#F9A8D4" />
  <rect x="290" y="430" width="40" height="60" rx="5" fill="#F9A8D4" />
  
  <!-- Person 4 -->
  <circle cx="490" cy="390" r="30" fill="#10B981" />
  <circle cx="490" cy="390" r="25" fill="#6EE7B7" />
  <rect x="470" y="430" width="40" height="60" rx="5" fill="#6EE7B7" />
  
  <!-- Connection lines -->
  <line x1="310" y1="210" x2="490" y2="210" stroke="#4F46E5" stroke-width="3" stroke-dasharray="6 6" />
  <line x1="310" y1="390" x2="490" y2="390" stroke="#4F46E5" stroke-width="3" stroke-dasharray="6 6" />
  <line x1="310" y1="210" x2="310" y2="390" stroke="#4F46E5" stroke-width="3" stroke-dasharray="6 6" />
  <line x1="490" y1="210" x2="490" y2="390" stroke="#4F46E5" stroke-width="3" stroke-dasharray="6 6" />
  <line x1="310" y1="210" x2="490" y2="390" stroke="#4F46E5" stroke-width="3" stroke-dasharray="6 6" />
  <line x1="490" y1="210" x2="310" y2="390" stroke="#4F46E5" stroke-width="3" stroke-dasharray="6 6" />
</svg> 